<svg xmlns="http://www.w3.org/2000/svg" width="0" height="0">
  <defs>
    <symbol id="react" viewBox="0 0 24 24">
      <path d="M12 9.861A2.139 2.139 0 1 0 12 14.139 2.139 2.139 0 1 0 12 9.861zM6.008 16.255l-.472-.12C2.018 15.246 0 13.737 0 11.996s2.018-3.25 5.536-4.139l.472-.119.133.468a23.53 23.53 0 0 0 1.363 3.578l.101.213-.101.213a23.307 23.307 0 0 0-1.363 3.578l-.133.469zM5.317 8.95c-2.674.751-4.315 1.9-4.315 3.046 0 1.145 1.641 2.294 4.315 3.046a24.95 24.95 0 0 1 1.182-3.046A24.752 24.752 0 0 1 5.317 8.95zM17.992 16.255l-.133-.469a23.357 23.357 0 0 0-1.364-3.578l-.101-.213.101-.213a23.42 23.42 0 0 0 1.364-3.578l.133-.468.473.119c3.517.889 5.535 2.398 5.535 4.139s-2.018 3.25-5.535 4.139l-.473.12zm-.491-4.259c.48 1.039.877 2.06 1.182 3.046 2.675-.752 4.315-1.901 4.315-3.046 0-1.146-1.641-2.294-4.315-3.046a24.788 24.788 0 0 1-1.182 3.046z"/>
    </symbol>
    <symbol id="node" viewBox="0 0 24 24">
      <path d="M11.998,24c-0.321,0-0.641-0.084-0.922-0.247l-2.936-1.737c-0.438-0.245-0.224-0.332-0.08-0.383 c0.585-0.203,0.703-0.25,1.328-0.604c0.065-0.037,0.151-0.023,0.218,0.017l2.256,1.339c0.082,0.045,0.197,0.045,0.272,0l8.795-5.076c0.082-0.047,0.134-0.141,0.134-0.238V6.921c0-0.099-0.053-0.192-0.137-0.242l-8.791-5.072c-0.081-0.047-0.189-0.047-0.271,0L3.075,6.68C2.99,6.729,2.936,6.825,2.936,6.921v10.15c0,0.097,0.054,0.189,0.139,0.235l2.409,1.392 c1.307,0.654,2.108-0.116,2.108-0.89V7.787c0-0.142,0.114-0.253,0.256-0.253h1.115c0.139,0,0.255,0.112,0.255,0.253v10.021 c0,1.745-0.95,2.745-2.604,2.745c-0.508,0-0.909,0-2.026-0.551L2.28,18.675c-0.57-0.329-0.922-0.945-0.922-1.604V6.921 c0-0.659,0.353-1.275,0.922-1.603l8.795-5.082c0.557-0.315,1.296-0.315,1.848,0l8.794,5.082c0.57,0.329,0.924,0.944,0.924,1.603 v10.15c0,0.659-0.354,1.273-0.924,1.604l-8.794,5.078C12.643,23.916,12.324,24,11.998,24z"/>
    </symbol>
    <symbol id="typescript" viewBox="0 0 24 24">
      <path d="M3,3v18h18V3H3z M13.666,12.451h-2.118V19H9.841v-6.549H7.767V11h5.899V12.451z M13.998,18.626v-1.751 c0.209,0.128,0.451,0.236,0.726,0.325c0.275,0.089,0.557,0.133,0.845,0.133c0.231,0,0.428-0.023,0.589-0.07 c0.161-0.047,0.293-0.111,0.396-0.192c0.103-0.081,0.179-0.176,0.227-0.284c0.048-0.108,0.072-0.223,0.072-0.345 c0-0.161-0.032-0.303-0.096-0.427c-0.064-0.124-0.155-0.24-0.272-0.35c-0.117-0.109-0.256-0.213-0.417-0.311 c-0.161-0.098-0.339-0.196-0.533-0.294c-0.193-0.093-0.384-0.193-0.572-0.301c-0.188-0.108-0.356-0.234-0.504-0.379 c-0.148-0.145-0.268-0.312-0.359-0.504c-0.091-0.191-0.137-0.421-0.137-0.69c0-0.339,0.066-0.633,0.198-0.884 c0.132-0.251,0.312-0.459,0.54-0.626c0.228-0.167,0.495-0.291,0.802-0.374c0.307-0.083,0.631-0.124,0.972-0.124 c0.302,0,0.593,0.027,0.873,0.082c0.28,0.055,0.517,0.119,0.711,0.193v1.628c-0.209-0.146-0.447-0.264-0.714-0.353 c-0.267-0.089-0.541-0.133-0.823-0.133c-0.209,0-0.387,0.021-0.534,0.064c-0.147,0.043-0.268,0.099-0.363,0.169 c-0.095,0.07-0.165,0.15-0.21,0.241c-0.045,0.091-0.068,0.185-0.068,0.284c0,0.146,0.029,0.275,0.087,0.387 c0.058,0.112,0.139,0.217,0.243,0.313c0.104,0.096,0.229,0.187,0.375,0.271c0.146,0.084,0.307,0.167,0.483,0.248 c0.258,0.124,0.495,0.254,0.711,0.391c0.216,0.137,0.401,0.291,0.555,0.462c0.154,0.171,0.274,0.367,0.359,0.588 c0.085,0.221,0.128,0.478,0.128,0.771c0,0.354-0.069,0.66-0.207,0.918c-0.138,0.258-0.329,0.472-0.573,0.643 c-0.244,0.171-0.533,0.297-0.867,0.379c-0.334,0.082-0.695,0.123-1.083,0.123c-0.258,0-0.538-0.027-0.839-0.082 C14.489,18.82,14.228,18.737,13.998,18.626z"/>
    </symbol>
    <symbol id="python" viewBox="0 0 24 24">
      <path d="M12,0C5.372,0,0,5.372,0,12s5.372,12,12,12s12-5.372,12-12S18.628,0,12,0z M11.797,17.883 c-0.453,0.233-0.938,0.35-1.455,0.35c-0.875,0-1.578-0.299-2.109-0.896c-0.531-0.597-0.797-1.354-0.797-2.271 c0-0.875,0.273-1.615,0.82-2.221c0.547-0.605,1.256-0.908,2.127-0.908c0.547,0,1.047,0.112,1.5,0.337 c0.453,0.225,0.836,0.54,1.148,0.945l-0.633,0.492c-0.25-0.32-0.539-0.57-0.867-0.75c-0.328-0.18-0.688-0.27-1.078-0.27 c-0.641,0-1.164,0.235-1.57,0.705c-0.406,0.47-0.609,1.057-0.609,1.76c0,0.734,0.197,1.332,0.591,1.793 c0.394,0.461,0.911,0.691,1.552,0.691c0.375,0,0.722-0.087,1.042-0.262c0.32-0.175,0.605-0.418,0.855-0.732l0.633,0.469 C12.664,17.318,12.25,17.65,11.797,17.883z M17.812,17.883c-0.453,0.233-0.938,0.35-1.455,0.35c-0.875,0-1.578-0.299-2.109-0.896 c-0.531-0.597-0.797-1.354-0.797-2.271c0-0.875,0.273-1.615,0.82-2.221c0.547-0.605,1.256-0.908,2.127-0.908 c0.547,0,1.047,0.112,1.5,0.337c0.453,0.225,0.836,0.54,1.148,0.945l-0.633,0.492c-0.25-0.32-0.539-0.57-0.867-0.75 c-0.328-0.18-0.688-0.27-1.078-0.27c-0.641,0-1.164,0.235-1.57,0.705c-0.406,0.47-0.609,1.057-0.609,1.76 c0,0.734,0.197,1.332,0.591,1.793c0.394,0.461,0.911,0.691,1.552,0.691c0.375,0,0.722-0.087,1.042-0.262 c0.32-0.175,0.605-0.418,0.855-0.732l0.633,0.469C18.679,17.318,18.265,17.65,17.812,17.883z"/>
    </symbol>
  </defs>
</svg>